<svg xmlns="http://www.w3.org/2000/svg" width="96" height="24" fill="none" viewBox="0 0 96 24"><g clip-path="url(#clip0_238008_101)"><path fill="url(#paint0_linear_238008_101)" fill-rule="evenodd" d="M36.8326 7.00981L36.0293 6.4073L36.3781 6.03801C36.355 5.44451 36.6278 4.73801 37.1475 4.15217C37.7174 3.50983 38.4669 3.14504 39.0977 3.15845L39.4435 2.79224L40.046 3.59558L40.0352 3.60711C40.5023 4.22719 40.3165 5.34498 39.5134 6.25051C38.662 7.20965 37.4919 7.50878 36.8355 7.00675L36.8326 7.00981Z" clip-rule="evenodd"/><path fill="url(#paint1_linear_238008_101)" d="M38.964 5.68737C39.8768 4.65853 40.0556 3.32656 39.3633 2.71233C38.671 2.09811 37.3698 2.43421 36.457 3.46305C35.5442 4.49189 35.3654 5.82386 36.0577 6.43809C36.75 7.05231 38.0512 6.71621 38.964 5.68737Z"/><path fill="#0052FE" d="M38.9767 5.69847C39.8839 4.67594 40.0524 3.34407 39.3531 2.72366C38.6539 2.10325 37.3516 2.42923 36.4443 3.45176C35.5371 4.4743 35.3686 5.80617 36.0679 6.42658C36.7671 7.04699 38.0694 6.72101 38.9767 5.69847Z"/><path fill="#0052FE" d="M9.53252 12.0675L18.4272 2.53735H13.6971L4.25051 12.4603V2.53735H0V22.2692H4.25051V17.617L6.73366 15.0398L12.6487 22.2692H17.6399L10.1342 12.825L9.53252 12.0667V12.0675Z"/><path fill="#0052FE" d="M32.1347 11.3068C30.8124 9.20927 28.3863 7.91187 25.4284 7.91187C22.2672 7.91187 19.7005 9.39484 18.4489 11.7446C17.9082 12.7512 17.6134 13.9201 17.6134 15.1966C17.6134 19.456 20.9119 22.4814 25.4284 22.4814C29.9448 22.4814 33.2184 19.456 33.2184 15.1966C33.2184 13.7289 32.8288 12.4066 32.1347 11.3068V11.3068ZM25.4284 19.1145C23.3686 19.1145 21.7836 17.642 21.7836 15.1966C21.7836 13.0935 22.9533 11.7101 24.5913 11.3647C24.8588 11.306 25.1392 11.2771 25.4284 11.2771C25.6316 11.2771 25.8268 11.2899 26.0188 11.3213C27.7774 11.5751 29.0458 12.9898 29.0458 15.1966C29.0458 17.642 27.4889 19.1145 25.4292 19.1145H25.4284Z"/><path fill="#0052FE" d="M40.0829 8.12207H35.9642V22.2698H40.0829V8.12207Z"/><path fill="#0052FE" d="M52.5477 7.91187C50.6197 7.91187 48.9559 8.57061 47.8473 9.77884V8.12234H43.9133V22.2701H48.0313V15.2745C48.0313 14.2463 48.253 13.4357 48.6474 12.834C49.2451 11.9061 50.2413 11.4635 51.4391 11.4635C53.0578 11.4635 54.0717 12.2933 54.2773 14.0808C54.3038 14.3041 54.3167 14.5467 54.3167 14.8022V22.2693H56.5853L58.4378 19.697V14.1723C58.4378 9.85757 55.9017 7.91187 52.5477 7.91187V7.91187Z"/><path fill="url(#paint2_linear_238008_101)" d="M79.8479 2.46997L59.6413 22.2701H65.9307L67.7768 19.6455L78.2323 4.76915L79.8479 2.46997Z"/><path fill="url(#paint3_linear_238008_101)" d="M73.8919 2.46997L73.246 3.36811L63.1053 17.4556L59.6413 22.2701L79.8479 2.46997H73.8919Z"/><path fill="#F69300" d="M77.8476 18.8124L77.5865 18.4428C77.3688 18.1343 77.0145 17.9512 76.6385 17.9512H71.8851C71.7092 17.9512 71.5726 18.0556 71.5076 18.1946L80.2938 22.27L77.8476 18.8124Z"/><path fill="url(#paint4_linear_238008_101)" d="M71.5075 18.1948C71.4497 18.3185 71.4489 18.4696 71.5348 18.6013L72.5109 20.0867H72.5133L73.9489 22.2702H80.2945L71.5083 18.1948H71.5075Z"/><path fill="url(#paint5_linear_238008_101)" d="M68.6508 6.13477L67.1461 3.92556L66.1548 2.4707H59.9465L68.5536 6.70515C68.7223 6.57902 68.7858 6.3332 68.6516 6.13477H68.6508Z"/><path fill="#F69300" d="M59.9458 2.47004L62.5944 6.28835C62.6057 6.30361 62.6161 6.31647 62.6274 6.33173C62.8467 6.61853 63.1865 6.78803 63.5496 6.78803H68.3054C68.4026 6.78803 68.4854 6.75429 68.5537 6.70368L59.9466 2.46924L59.9458 2.47004Z"/><g filter="url(#filter0_d_238008_101)"><path fill="#000" d="M88.582 3.22611H86.9096V7.61238H85.7794V3.22611H84.1298V2.39062H88.582V3.22611ZM90.694 2.39062L92.0981 6.16189L93.4966 2.39062H94.975V7.61238H93.8334V6.16189L93.9589 3.69026L92.4806 7.61238H91.71L90.2373 3.69606L90.3515 6.16189V7.61238H89.227V2.39062H90.694V2.39062Z"/><path stroke="#000" d="M89.727 2.89062H90.3466L90.5898 3.54385L89.7379 3.71919L89.8515 6.17346V7.11238H89.727V2.89062ZM94.4583 3.71563L93.6045 3.53758L93.8444 2.89062H94.475V7.11238H94.3334V6.17458L94.4583 3.71563ZM86.2794 3.22611V2.89062H86.4096V3.22611V7.11238H86.2794V3.22611Z"/><path stroke="#000" stroke-opacity=".2" d="M89.727 2.89062H90.3466L90.5898 3.54385L89.7379 3.71919L89.8515 6.17346V7.11238H89.727V2.89062ZM94.4583 3.71563L93.6045 3.53758L93.8444 2.89062H94.475V7.11238H94.3334V6.17458L94.4583 3.71563ZM86.2794 3.22611V2.89062H86.4096V3.22611V7.11238H86.2794V3.22611Z"/></g></g><defs><filter id="filter0_d_238008_101" width="18.845" height="13.222" x="80.13" y="2.391" color-interpolation-filters="sRGB" filterUnits="userSpaceOnUse"><feFlood flood-opacity="0" result="BackgroundImageFix"/><feColorMatrix in="SourceAlpha" result="hardAlpha" type="matrix" values="0 0 0 0 0 0 0 0 0 0 0 0 0 0 0 0 0 0 127 0"/><feOffset dy="4"/><feGaussianBlur stdDeviation="2"/><feComposite in2="hardAlpha" operator="out"/><feColorMatrix type="matrix" values="0 0 0 0 0 0 0 0 0 0 0 0 0 0 0 0 0 0 0.25 0"/><feBlend in2="BackgroundImageFix" mode="normal" result="effect1_dropShadow_238008_101"/><feBlend in="SourceGraphic" in2="effect1_dropShadow_238008_101" mode="normal" result="shape"/></filter><linearGradient id="paint0_linear_238008_101" x1="40.146" x2="37.134" y1="3.796" y2="7.311" gradientUnits="userSpaceOnUse"><stop stop-color="#3372F5"/><stop offset=".25" stop-color="#3372F5"/><stop offset=".505" stop-color="#80DBFB"/><stop offset=".839" stop-color="#3372F5"/><stop offset="1" stop-color="#3372F5"/></linearGradient><linearGradient id="paint1_linear_238008_101" x1="44.607" x2="43.801" y1="3.785" y2="4.692" gradientUnits="userSpaceOnUse"><stop stop-color="#0080D4"/><stop offset=".47" stop-color="#fff"/><stop offset=".6" stop-color="#F1F8FC"/><stop offset="1" stop-color="#007DCC"/></linearGradient><linearGradient id="paint2_linear_238008_101" x1="75.308" x2="67.48" y1="7.783" y2="16.84" gradientUnits="userSpaceOnUse"><stop stop-color="#FFAC00"/><stop offset="1" stop-color="#FE7801"/></linearGradient><linearGradient id="paint3_linear_238008_101" x1="59.641" x2="79.848" y1="12.37" y2="12.37" gradientUnits="userSpaceOnUse"><stop stop-color="#FFCE00"/><stop offset="1" stop-color="#FFB003"/></linearGradient><linearGradient id="paint4_linear_238008_101" x1="71.467" x2="80.294" y1="20.233" y2="20.233" gradientUnits="userSpaceOnUse"><stop stop-color="#FE8B01"/><stop offset="1" stop-color="#FE7801"/></linearGradient><linearGradient id="paint5_linear_238008_101" x1="59.946" x2="68.724" y1="4.588" y2="4.588" gradientUnits="userSpaceOnUse"><stop stop-color="#FFCE00"/><stop offset="1" stop-color="#FFC101"/></linearGradient><clipPath id="clip0_238008_101"><rect width="96" height="24" fill="#fff"/></clipPath></defs></svg>